<svg width="49.000000" height="34.000000" viewBox="0 0 49 34" fill="none" xmlns="http://www.w3.org/2000/svg" xmlns:xlink="http://www.w3.org/1999/xlink">
	<desc>
			Created with Pixso.
	</desc>
	<defs/>
	<rect id="BASE" x="-0.124268" rx="15.875000" width="48.686337" height="33.521740" fill="#FFFFFF" fill-opacity="1.000000"/>
	<rect id="BASE" x="1.198669" y="1.322998" rx="15.437953" width="46.040504" height="30.875906" stroke="#D9D9D9" stroke-opacity="1.000000" stroke-width="2.645833"/>
	<path id="Bitcoin" d="M35.5238 16.7935C35.5238 22.9932 30.5015 28.0188 24.3062 28.0188C18.1109 28.0188 13.0886 22.9932 13.0886 16.7935C13.0886 10.5938 18.1109 5.56787 24.3062 5.56787C30.5015 5.56787 35.5238 10.5938 35.5238 16.7935ZM27.0013 12.6228C28.5617 13.1589 29.7031 13.9619 29.4792 15.4563C29.3166 16.5503 28.7082 17.0796 27.8998 17.2649C29.0089 17.8403 29.3868 18.9326 29.0356 20.2534C28.3688 22.1541 26.7837 22.314 24.6755 21.9167L24.1636 23.96L22.9277 23.6526L23.4326 21.6367C23.1122 21.5574 22.7848 21.4724 22.4475 21.3821L21.9406 23.4075L20.7062 23.1001L21.2173 21.0527L18.7281 20.4268L19.3422 19.0161C19.3422 19.0161 20.2534 19.2568 20.2407 19.2393C20.5906 19.3254 20.7463 19.0981 20.8076 18.9473L22.1948 13.4019C22.2102 13.1401 22.1194 12.8103 21.6187 12.6853C21.6378 12.6719 20.7209 12.4629 20.7209 12.4629L21.0498 11.1467L23.5425 11.7622L24.0495 9.73828L25.2845 10.0457L24.7881 12.0298C25.1205 12.1047 25.4543 12.1814 25.7789 12.262L26.2718 10.2905L27.5076 10.5979L27.0013 12.6228ZM27.0371 15.4343C26.7178 16.7085 24.886 16.2224 24.0443 15.999C23.967 15.9788 23.8981 15.9604 23.8395 15.9458L24.455 13.4851C24.526 13.5029 24.6131 13.5222 24.7118 13.5439C25.5832 13.7368 27.3629 14.1306 27.0371 15.4343ZM26.6547 19.4043C26.3038 20.8083 24.0987 20.2271 23.0904 19.9614C22.9999 19.9375 22.9191 19.9163 22.8502 19.8992L23.5289 17.187C23.6132 17.208 23.7161 17.231 23.8326 17.2571C24.8758 17.4905 27.0139 17.9688 26.6547 19.4043Z" clip-rule="evenodd" fill="#F7931A" fill-opacity="1.000000" fill-rule="evenodd"/>
</svg>
