<svg width="15.000000" height="15.000000" viewBox="0 0 15 15" fill="none" xmlns="http://www.w3.org/2000/svg" xmlns:xlink="http://www.w3.org/1999/xlink">
	<desc>
			Created with Pixso.
	</desc>
	<defs/>
	<path id="Vector" d="M7 14C3.14 14 -0.01 10.85 0 6.99C0 3.13 3.14 0 7 0C10.86 0 14 3.15 14 7C13.99 10.86 10.85 14 7 14ZM12.92 7C12.92 3.73 10.26 1.07 7 1.07C3.72 1.07 1.07 3.73 1.07 7C1.07 10.26 3.73 12.92 7 12.92C10.27 12.92 12.92 10.26 12.92 7Z" fill="#FFE15A" fill-opacity="1.000000" fill-rule="nonzero"/>
	<path id="Vector" d="M0 6.99C0 3.13 3.14 0 7 0C10.86 0 14 3.15 14 7C13.99 10.86 10.85 14 7 14C3.14 14 -0.01 10.85 0 6.99ZM7 1.07C3.72 1.07 1.07 3.73 1.07 7C1.07 10.26 3.73 12.92 7 12.92C10.27 12.92 12.92 10.26 12.92 7C12.92 3.73 10.26 1.07 7 1.07Z" stroke="#FFE15A" stroke-opacity="1.000000" stroke-width="0.700000"/>
	<path id="Vector" d="M6.98 9C6.38 9 5.78 9 5.18 9C4.88 9 4.77 8.92 4.69 8.66C4.47 7.96 4.24 7.26 4.03 6.56C4 6.47 3.99 6.37 4 6.28C4.04 6.09 4.27 5.99 4.5 6.05C4.84 6.13 5.19 6.21 5.53 6.3C5.63 6.33 5.67 6.31 5.72 6.24C6.03 5.88 6.34 5.53 6.65 5.17C6.86 4.94 7.13 4.94 7.33 5.17C7.64 5.52 7.95 5.88 8.26 6.24C8.32 6.32 8.37 6.32 8.47 6.3C8.8 6.21 9.14 6.13 9.47 6.05C9.82 5.97 10.07 6.19 9.97 6.51C9.75 7.23 9.51 7.96 9.27 8.68C9.2 8.91 9.08 8.99 8.82 8.99C8.21 8.99 7.6 8.99 6.98 9ZM4.95 6.88C4.95 6.91 4.95 6.92 4.95 6.94C5.09 7.36 5.23 7.79 5.36 8.22C5.38 8.3 5.43 8.3 5.5 8.3C6.49 8.3 7.49 8.3 8.48 8.3C8.57 8.3 8.6 8.28 8.63 8.21C8.75 7.8 8.88 7.4 9.01 7C9.02 6.97 9.03 6.93 9.04 6.89C8.79 6.95 8.57 7 8.35 7.06C8.14 7.11 7.97 7.06 7.84 6.91C7.59 6.61 7.34 6.33 7.09 6.03C7.06 6 7.03 5.97 6.99 5.92C6.71 6.26 6.43 6.58 6.15 6.9C5.99 7.08 5.87 7.12 5.63 7.05C5.4 6.99 5.19 6.94 4.95 6.88Z" fill="#FFE15A" fill-opacity="1.000000" fill-rule="nonzero"/>
</svg>
