<svg width="77.000000" height="29.000000" viewBox="0 0 77 29" fill="none" xmlns="http://www.w3.org/2000/svg" xmlns:xlink="http://www.w3.org/1999/xlink">
	<desc>
			Created with Pixso.
	</desc>
	<defs/>
	<path id="Shape" d="M8.25 17.97L11.29 17.2L12.56 21.12L8.25 17.97ZM15.25 12.91L9.89 12.91L8.25 7.87L6.6 12.91L1.25 12.91L5.58 16.04L3.93 21.08L8.27 17.95L10.93 16.04L15.25 12.91Z" fill="#219653" fill-opacity="1.000000" fill-rule="nonzero"/>
	<path id="Trustpilot" d="M60.48 18.5L61.65 18.5L61.65 8.75L60.48 8.75L60.48 18.5ZM57.31 9.47Q57.23 9.62 57.23 9.81Q57.23 10 57.31 10.15Q57.35 10.22 57.4 10.28Q57.42 10.3 57.44 10.32Q57.62 10.47 57.92 10.47Q58.23 10.47 58.4 10.32Q58.42 10.3 58.44 10.28Q58.5 10.22 58.54 10.14Q58.62 10 58.62 9.81Q58.62 9.62 58.55 9.47Q58.51 9.39 58.44 9.32Q58.42 9.29 58.39 9.27Q58.22 9.13 57.92 9.13Q57.63 9.13 57.46 9.27Q57.43 9.3 57.4 9.32Q57.34 9.39 57.31 9.47ZM23.73 10.26L26.7 10.26L26.7 9.25L19.56 9.25L19.56 10.26L22.52 10.26L22.52 18.5L23.73 18.5L23.73 10.26ZM47.28 11.63L47.28 9.96L46.1 9.96L46.1 11.63L44.85 11.63L44.85 12.53L46.1 12.53L46.1 16.79Q46.1 17.67 46.5 18.15Q46.58 18.24 46.67 18.31Q47.05 18.62 47.69 18.62Q48.13 18.62 48.59 18.5L48.59 17.54Q48.23 17.62 48.03 17.62Q47.62 17.62 47.45 17.42Q47.45 17.42 47.45 17.41Q47.28 17.21 47.28 16.79L47.28 12.53L48.56 12.53L48.56 11.63L47.28 11.63ZM72.54 11.63L72.54 9.96L71.37 9.96L71.37 11.63L70.12 11.63L70.12 12.53L71.37 12.53L71.37 16.79Q71.37 17.67 71.77 18.15Q71.84 18.24 71.93 18.31Q72.32 18.62 72.95 18.62Q73.39 18.62 73.85 18.5L73.85 17.54Q73.5 17.62 73.3 17.62Q72.89 17.62 72.72 17.42Q72.71 17.42 72.71 17.41Q72.54 17.21 72.54 16.79L72.54 12.53L73.82 12.53L73.82 11.63L72.54 11.63ZM30.16 12.64Q30.47 12.64 30.73 12.68L30.73 11.59Q30.56 11.5 30.21 11.5Q29.71 11.5 29.32 11.71Q28.88 11.94 28.58 12.42L28.56 11.63L27.41 11.63L27.41 18.5L28.59 18.5L28.59 13.62Q28.77 13.19 29.09 12.95Q29.5 12.64 30.16 12.64ZM42.86 16.19Q42.98 16.4 42.98 16.67Q42.98 16.86 42.91 17.02Q42.81 17.24 42.58 17.39Q42.17 17.66 41.51 17.66Q40.78 17.66 40.34 17.32Q40.16 17.17 40.04 16.98Q39.89 16.72 39.87 16.38L38.69 16.38Q38.69 16.62 38.75 16.84Q38.83 17.19 39.05 17.51Q39.11 17.6 39.18 17.69Q39.52 18.09 40.05 18.33Q40.68 18.62 41.51 18.62Q42.68 18.62 43.42 18.07Q43.79 17.79 43.97 17.42Q44.15 17.05 44.15 16.59Q44.15 16.07 43.92 15.69Q43.9 15.67 43.89 15.65Q43.63 15.27 43.08 15Q42.53 14.72 41.66 14.53Q40.78 14.33 40.44 14.12Q40.29 14.02 40.21 13.89Q40.1 13.72 40.1 13.47Q40.1 13.26 40.19 13.08Q40.28 12.89 40.47 12.74Q40.83 12.46 41.47 12.46Q41.96 12.46 42.32 12.68Q42.41 12.74 42.5 12.81Q42.77 13.04 42.86 13.33Q42.91 13.48 42.91 13.65L44.09 13.65Q44.09 13.18 43.91 12.8Q43.73 12.41 43.36 12.1Q43.31 12.06 43.25 12.01Q42.55 11.5 41.47 11.5Q40.49 11.5 39.81 11.96Q39.73 12.02 39.64 12.08Q39.2 12.45 39.03 12.91Q38.93 13.19 38.93 13.51Q38.93 13.95 39.11 14.28Q39.14 14.34 39.18 14.39Q39.43 14.76 39.95 15.02Q40.48 15.29 41.37 15.48Q42.26 15.67 42.62 15.93Q42.77 16.04 42.86 16.19ZM55.01 17.66Q55.73 16.7 55.73 15.14L55.73 15.03Q55.73 13.37 55.01 12.43Q54.7 12.02 54.28 11.8Q53.75 11.5 53.05 11.5Q52.23 11.5 51.64 11.87Q51.31 12.07 51.06 12.39L51 11.63L49.93 11.63L49.93 21.14L51.1 21.14L51.1 17.83Q51.3 18.04 51.53 18.2Q52.16 18.62 53.07 18.62Q53.72 18.62 54.23 18.35Q54.68 18.12 55.01 17.66ZM63.62 13.18Q63.22 13.99 63.22 15L63.22 15.08Q63.22 16.48 63.89 17.4Q63.98 17.53 64.09 17.65Q64.43 18.03 64.86 18.27Q65.51 18.62 66.35 18.62Q67.1 18.62 67.72 18.33Q67.86 18.26 67.99 18.18Q68.23 18.03 68.44 17.84Q68.84 17.46 69.09 16.94Q69.47 16.14 69.47 15.14L69.47 15.05Q69.47 13.62 68.79 12.69Q68.7 12.58 68.61 12.47Q68.27 12.09 67.85 11.86Q67.2 11.5 66.34 11.5Q65.63 11.5 65.04 11.77Q64.88 11.84 64.72 11.94Q64.54 12.05 64.38 12.18Q63.91 12.58 63.62 13.18ZM35.76 18.1Q35.92 17.98 36.05 17.82L36.08 18.5L37.2 18.5L37.2 11.63L36.02 11.63L36.02 16.62Q35.87 16.96 35.63 17.18Q35.13 17.63 34.23 17.63Q33.73 17.63 33.42 17.38Q32.96 17 32.96 16.06L32.96 11.63L31.79 11.63L31.79 16.1Q31.79 17.35 32.37 17.98Q32.46 18.08 32.56 18.17Q33.11 18.62 34.04 18.62Q35.11 18.62 35.76 18.1ZM57.32 18.5L58.5 18.5L58.5 11.63L57.32 11.63L57.32 18.5ZM64.93 16.97Q64.4 16.28 64.4 15.14Q64.4 13.85 64.94 13.16Q65.21 12.81 65.56 12.63Q65.91 12.46 66.34 12.46Q66.79 12.46 67.15 12.65Q67.5 12.82 67.76 13.17Q68.3 13.87 68.3 15Q68.3 16.26 67.77 16.96Q67.52 17.3 67.19 17.47Q66.82 17.66 66.35 17.66Q65.88 17.66 65.52 17.47Q65.18 17.3 64.93 16.97ZM54.06 13.17Q54.56 13.84 54.56 15Q54.56 16.32 54.06 16.99Q53.82 17.32 53.49 17.49Q53.15 17.66 52.72 17.66Q52.17 17.66 51.76 17.42Q51.36 17.19 51.1 16.72L51.1 13.44Q51.38 12.95 51.8 12.72Q52.19 12.5 52.7 12.5Q53.17 12.5 53.53 12.69Q53.83 12.86 54.06 13.17Z" fill="#FFFFFF" fill-opacity="1.000000" fill-rule="evenodd"/>
</svg>
