<svg width="199.000000" height="92.000000" viewBox="0 0 199 92" fill="none" xmlns="http://www.w3.org/2000/svg" xmlns:xlink="http://www.w3.org/1999/xlink">
	<desc>
			Created with Pixso.
	</desc>
	<defs>
		<clipPath id="clip2_733">
			<rect width="92.129631" height="92.000000" fill="white" fill-opacity="0"/>
		</clipPath>
		<linearGradient x1="47.481384" y1="18.399994" x2="47.481384" y2="71.189598" id="paint_linear_2_727_0" gradientUnits="userSpaceOnUse">
			<stop stop-color="#F7931A"/>
			<stop offset="1.000000" stop-color="#FFE15A"/>
		</linearGradient>
		<linearGradient x1="45.927151" y1="32.126404" x2="45.927151" y2="59.542400" id="paint_linear_2_728_0" gradientUnits="userSpaceOnUse">
			<stop stop-color="#F7931A"/>
			<stop offset="1.000000" stop-color="#FFE15A"/>
		</linearGradient>
		<linearGradient x1="42.006462" y1="41.823212" x2="42.006462" y2="62.063210" id="paint_linear_2_729_0" gradientUnits="userSpaceOnUse">
			<stop stop-color="#F7931A"/>
			<stop offset="1.000000" stop-color="#FFE15A"/>
		</linearGradient>
		<linearGradient x1="39.353371" y1="50.563202" x2="39.353371" y2="64.823227" id="paint_linear_2_730_0" gradientUnits="userSpaceOnUse">
			<stop stop-color="#F7931A"/>
			<stop offset="1.000000" stop-color="#FFE15A"/>
		</linearGradient>
		<linearGradient x1="36.968452" y1="58.236023" x2="36.968452" y2="67.454407" id="paint_linear_2_731_0" gradientUnits="userSpaceOnUse">
			<stop stop-color="#F7931A"/>
			<stop offset="1.000000" stop-color="#FFE15A"/>
		</linearGradient>
	</defs>
	<rect width="92.129631" height="92.000000" fill="#FFFFFF" fill-opacity="0"/>
	<g clip-path="url(#clip2_733)">
		<path d="M53.71 18.4C54.1 23.75 54.47 28.39 54.78 33.02C55.33 41.08 55.92 49.14 56.27 57.22C56.33 58.51 55.67 60.38 54.69 61.1C49.86 64.62 44.79 67.85 39.82 71.18C39.43 70.98 39.06 70.76 38.68 70.56C39.23 69.55 39.54 68.28 40.35 67.56C43.36 64.86 46.65 62.46 49.55 59.67C50.56 58.69 51.34 56.8 51.19 55.45C50.34 47.95 49.62 40.36 47.94 33.02C46.53 26.77 49.6 23 53.71 18.4Z" fill="url(#paint_linear_2_727_0)" fill-opacity="1.000000" fill-rule="nonzero"/>
		<path d="M47.23 59.32C45.44 52.71 43.23 46.16 42.12 39.44C41.75 37.25 44.24 34.57 45.42 32.12C45.88 32.2 46.34 32.25 46.78 32.32C47.19 35.41 47.59 38.49 48.02 41.58C48.63 46.07 49.4 50.56 49.75 55.08C49.86 56.52 48.9 58.05 48.44 59.54C48.04 59.45 47.63 59.39 47.23 59.32Z" fill="url(#paint_linear_2_728_0)" fill-opacity="1.000000" fill-rule="nonzero"/>
		<path d="M40.91 41.82C44.72 50.41 46.32 60.02 44.24 62.06C42.38 57.27 40.28 52.69 38.92 47.91C38.49 46.42 40.02 44.36 40.91 41.82Z" fill="url(#paint_linear_2_729_0)" fill-opacity="1.000000" fill-rule="nonzero"/>
		<path d="M38.55 50.76C39.82 55.29 43.04 59.34 42.64 64.27C42.1 64.45 41.59 64.63 41.05 64.82C39.36 61.45 37.42 58.16 36.1 54.64C35.71 53.59 36.96 51.94 37.48 50.56C37.85 50.63 38.2 50.71 38.55 50.76Z" fill="url(#paint_linear_2_730_0)" fill-opacity="1.000000" fill-rule="nonzero"/>
		<path d="M35.89 58.23C40.04 64.06 40.37 65.41 38.27 67.45C33.9 62.46 33.39 60.48 35.89 58.23Z" fill="url(#paint_linear_2_731_0)" fill-opacity="1.000000" fill-rule="nonzero"/>
	</g>
	<path d="M129.55 42.53Q130.29 41.13 130.41 40.2L126.89 40.2Q126.31 42.17 125.35 44.17Q124.4 46.17 123.43 47.57L123.43 50.25L129.46 50.25L129.46 52.8L132.88 52.8L132.88 50.25L134.61 50.25L134.61 47.61L132.88 47.61L132.88 41.38L131.35 41.38Q131.17 42.09 130.59 43.17Q130.02 44.24 129.46 45.04L129.46 47.61L125.89 47.61Q126.78 46.71 127.79 45.32Q128.81 43.92 129.55 42.53Z" fill="#FFE15A" fill-opacity="1.000000" fill-rule="evenodd"/>
	<path d="M91.49 44.81Q90.24 43.7 87.99 43.7Q85.73 43.7 84.48 44.82Q84.45 44.85 84.42 44.87Q84.3 44.99 84.18 45.12Q83.17 46.27 83.17 48.32Q83.17 50.37 84.18 51.53Q84.3 51.66 84.42 51.78Q84.45 51.8 84.47 51.82Q85.73 52.95 87.99 52.95Q90.25 52.95 91.5 51.83Q91.53 51.8 91.57 51.77Q91.71 51.63 91.84 51.48Q92.83 50.33 92.83 48.32Q92.83 46.32 91.84 45.17Q91.71 45.02 91.57 44.88Q91.53 44.84 91.49 44.81ZM102.32 44.81Q101.07 43.7 98.82 43.7Q96.56 43.7 95.31 44.82Q95.28 44.85 95.25 44.87Q95.13 44.99 95.01 45.12Q94 46.27 94 48.32Q94 50.37 95.01 51.53Q95.13 51.66 95.25 51.78Q95.28 51.8 95.3 51.82Q96.55 52.95 98.82 52.95Q101.07 52.95 102.33 51.83Q102.36 51.8 102.4 51.77Q102.54 51.63 102.67 51.48Q103.66 50.33 103.66 48.32Q103.66 46.32 102.67 45.17Q102.54 45.02 102.4 44.88Q102.36 44.84 102.32 44.81ZM111.78 44.39Q110.68 43.7 108.96 43.7Q107.22 43.7 106.08 44.39Q105.63 44.67 105.36 45.07Q104.94 45.67 104.94 46.56Q104.94 47.46 105.38 48.03Q105.43 48.09 105.48 48.14Q105.84 48.54 106.29 48.78Q106.5 48.9 106.72 48.98Q107.44 49.23 108.53 49.47Q109.43 49.65 109.83 49.81Q110.11 49.93 110.19 50.12Q110.22 50.2 110.22 50.3Q110.22 50.47 110.14 50.59Q110.05 50.72 109.86 50.78Q109.51 50.9 108.96 50.9Q108.22 50.9 107.87 50.67Q107.85 50.66 107.83 50.64Q107.52 50.4 107.52 49.77L104.8 49.77Q104.8 51.13 105.48 51.86Q105.69 52.08 105.96 52.25Q107.13 52.95 109.22 52.95Q111.02 52.95 112.09 52.19Q112.4 51.97 112.62 51.68Q113.16 50.96 113.16 49.83Q113.15 49.01 112.75 48.49Q112.69 48.42 112.63 48.35Q112.31 48.01 111.92 47.79Q111.68 47.66 111.41 47.56Q110.72 47.32 109.64 47.1Q108.71 46.92 108.3 46.75Q108.01 46.63 107.92 46.43Q107.88 46.34 107.88 46.23Q107.88 46.18 107.9 46.14Q107.94 45.95 108.19 45.82Q108.49 45.64 109.07 45.64Q109.65 45.64 109.94 45.9Q110.08 46.03 110.15 46.19Q110.22 46.35 110.22 46.56L110.22 46.61L112.91 46.61L112.91 46.45Q112.9 45.7 112.56 45.15Q112.28 44.7 111.78 44.39ZM142.79 44.09Q141.77 43.7 140.48 43.7Q138.17 43.7 136.9 44.85Q136.89 44.86 136.87 44.87Q136.73 45 136.61 45.15Q135.6 46.3 135.6 48.32Q135.6 50.62 136.72 51.79Q136.77 51.84 136.83 51.89Q137.94 52.95 140.06 52.95Q141.85 52.95 143.02 52.1Q143.14 52.01 143.26 51.91L143.55 52.8L145.03 52.8L145.03 47.8L140.26 47.8L140.26 49.62L142.29 49.62Q142.29 49.8 142.23 49.96Q142.12 50.26 141.79 50.47Q141.77 50.49 141.75 50.5Q141.27 50.81 140.6 50.81Q139.65 50.81 139.13 50.33Q139.1 50.3 139.06 50.27Q139.03 50.23 139 50.2Q138.54 49.66 138.54 48.74L138.54 47.91Q138.54 46.98 139 46.45Q139.03 46.41 139.06 46.38Q139.1 46.35 139.13 46.31Q139.65 45.84 140.6 45.84Q141.22 45.84 141.68 46.12Q141.74 46.15 141.79 46.19Q142.08 46.39 142.2 46.66Q142.29 46.86 142.29 47.09L145.03 47.09Q145.03 46.26 144.68 45.62Q144.57 45.42 144.42 45.24Q144.37 45.18 144.32 45.11Q143.74 44.44 142.79 44.09ZM154.76 44.81Q153.5 43.7 151.26 43.7Q149 43.7 147.75 44.82Q147.72 44.85 147.69 44.87Q147.56 44.99 147.45 45.12Q146.43 46.27 146.43 48.32Q146.43 50.37 147.45 51.53Q147.56 51.66 147.69 51.78Q147.71 51.8 147.74 51.82Q148.99 52.95 151.26 52.95Q153.51 52.95 154.76 51.83Q154.8 51.8 154.83 51.77Q154.98 51.63 155.11 51.48Q156.09 50.33 156.09 48.32Q156.09 46.32 155.11 45.17Q154.98 45.02 154.83 44.88Q154.79 44.84 154.76 44.81ZM80.43 44.04Q79.95 43.85 79.39 43.85L73.43 43.85L73.43 52.8L79.47 52.8Q80.05 52.8 80.55 52.6Q80.67 52.55 80.78 52.5Q81.17 52.3 81.46 52Q81.6 51.84 81.72 51.66Q81.79 51.55 81.85 51.43Q82.06 50.97 82.06 50.41Q82.06 49.43 81.58 48.86Q81.15 48.36 80.36 48.18L80.36 48.13Q81.05 47.93 81.42 47.48Q81.86 46.94 81.86 46.05Q81.86 45.69 81.75 45.37Q81.66 45.13 81.52 44.92Q81.4 44.74 81.26 44.58Q80.99 44.31 80.63 44.13Q80.53 44.08 80.43 44.04ZM119.74 52.8L119.74 46.14L122.66 46.14L122.66 43.85L113.93 43.85L113.93 46.14L116.87 46.14L116.87 52.8L119.74 52.8ZM160.51 43.85L157.64 43.85L157.64 52.8L165.1 52.8L165.1 50.51L160.51 50.51L160.51 43.85ZM173.81 45.08Q172.64 43.85 170.19 43.85L166.31 43.85L166.31 52.8L170.19 52.8Q172.64 52.8 173.81 51.57Q174.88 50.45 174.88 48.32Q174.88 46.19 173.81 45.08ZM78.28 47.34L76.3 47.34L76.3 45.81L78.28 45.81Q78.41 45.81 78.51 45.85Q78.64 45.91 78.75 46.02Q78.84 46.11 78.89 46.21Q78.94 46.35 78.94 46.5L78.94 46.63Q78.94 46.83 78.87 46.98Q78.82 47.06 78.75 47.14Q78.67 47.22 78.57 47.27Q78.44 47.34 78.28 47.34ZM86.79 46.2Q87.25 45.84 87.99 45.84Q88.73 45.84 89.19 46.2Q89.31 46.29 89.4 46.4Q89.43 46.43 89.45 46.46Q89.89 47.01 89.89 47.91L89.89 48.74Q89.89 49.64 89.45 50.19Q89.43 50.22 89.4 50.25Q89.31 50.36 89.19 50.45Q88.73 50.81 87.99 50.81Q87.25 50.81 86.79 50.44Q86.68 50.36 86.59 50.25Q86.57 50.23 86.56 50.21Q86.11 49.66 86.11 48.74L86.11 47.91Q86.11 46.99 86.56 46.43Q86.57 46.42 86.59 46.4Q86.68 46.29 86.79 46.2ZM97.62 46.2Q98.08 45.84 98.82 45.84Q99.56 45.84 100.02 46.2Q100.14 46.29 100.23 46.4Q100.26 46.43 100.28 46.46Q100.72 47.01 100.72 47.91L100.72 48.74Q100.72 49.64 100.28 50.19Q100.26 50.22 100.23 50.25Q100.14 50.36 100.02 50.45Q99.56 50.81 98.82 50.81Q98.08 50.81 97.62 50.44Q97.51 50.36 97.42 50.25Q97.4 50.23 97.39 50.21Q96.94 49.66 96.94 48.74L96.94 47.91Q96.94 46.99 97.39 46.43Q97.4 46.42 97.42 46.4Q97.51 46.29 97.62 46.2ZM150.06 46.2Q150.52 45.84 151.26 45.84Q152 45.84 152.46 46.2Q152.57 46.29 152.67 46.4Q152.69 46.43 152.72 46.46Q153.16 47.01 153.16 47.91L153.16 48.74Q153.16 49.64 152.72 50.19Q152.69 50.22 152.67 50.25Q152.57 50.36 152.46 50.45Q152 50.81 151.26 50.81Q150.52 50.81 150.06 50.44Q149.95 50.36 149.85 50.25Q149.84 50.23 149.82 50.21Q149.37 49.66 149.37 48.74L149.37 47.91Q149.37 46.99 149.82 46.43Q149.84 46.42 149.85 46.4Q149.95 46.29 150.06 46.2ZM170.13 50.65L169.18 50.65L169.18 46L170.13 46Q170.98 46 171.43 46.42Q171.94 46.9 171.94 47.93L171.94 48.71Q171.94 49.75 171.43 50.23Q170.98 50.65 170.13 50.65ZM78.49 50.72L76.3 50.72L76.3 49.18L78.49 49.18Q78.65 49.18 78.78 49.25Q78.88 49.3 78.96 49.38Q79.03 49.45 79.07 49.53Q79.15 49.69 79.15 49.88L79.15 50.01Q79.15 50.21 79.07 50.37Q79.03 50.45 78.96 50.52Q78.89 50.6 78.79 50.65Q78.66 50.72 78.49 50.72Z" fill="#FFFFFF" fill-opacity="1.000000" fill-rule="evenodd"/>
</svg>
