<svg width="49.000000" height="34.000000" viewBox="0 0 49 34" fill="none" xmlns="http://www.w3.org/2000/svg" xmlns:xlink="http://www.w3.org/1999/xlink">
	<desc>
			Created with Pixso.
	</desc>
	<defs/>
	<rect id="BASE" x="-0.562134" rx="15.875000" width="48.686337" height="33.521740" fill="#FFFFFF" fill-opacity="1.000000"/>
	<rect id="BASE" x="0.760803" y="1.322998" rx="15.437953" width="46.040504" height="30.875906" stroke="#D9D9D9" stroke-opacity="1.000000" stroke-width="2.645833"/>
	<mask id="mask_783_3538" fill="white">
		<path id="Left" d="M24.1006 23.989C22.4449 25.4268 20.2973 26.2947 17.9505 26.2947C12.7142 26.2947 8.46924 21.9734 8.46924 16.6428C8.46924 11.3123 12.7142 6.99097 17.9505 6.99097C20.2972 6.99097 22.4449 7.85889 24.1005 9.29663C25.7562 7.85889 27.9038 6.99097 30.2505 6.99097C35.4869 6.99097 39.7319 11.3123 39.7319 16.6428C39.7319 21.9734 35.4869 26.2947 30.2505 26.2947C27.9038 26.2947 25.7562 25.4268 24.1006 23.989Z" clip-rule="evenodd" fill="" fill-opacity="1.000000" fill-rule="evenodd"/>
	</mask>
	<path id="Left" d="M24.1006 23.989C22.4449 25.4268 20.2973 26.2947 17.9505 26.2947C12.7142 26.2947 8.46924 21.9734 8.46924 16.6428C8.46924 11.3123 12.7142 6.99097 17.9505 6.99097C20.2972 6.99097 22.4449 7.85889 24.1005 9.29663C25.7562 7.85889 27.9038 6.99097 30.2505 6.99097C35.4869 6.99097 39.7319 11.3123 39.7319 16.6428C39.7319 21.9734 35.4869 26.2947 30.2505 26.2947C27.9038 26.2947 25.7562 25.4268 24.1006 23.989Z" clip-rule="evenodd" fill="#ED0006" fill-opacity="1.000000" fill-rule="evenodd" mask="url(#mask_783_3538)"/>
	<path id="Left" d="" fill="#979797" fill-opacity="0.000000" fill-rule="nonzero"/>
	<mask id="mask_783_3541" fill="white">
		<path id="Right" d="M24.1006 23.9888C25.7562 25.4265 27.9039 26.2944 30.2507 26.2944C35.487 26.2944 39.7319 21.9731 39.7319 16.6426C39.7319 11.312 35.487 6.99072 30.2507 6.99072C27.9039 6.99072 25.7562 7.85864 24.1006 9.29639C26.1392 11.0667 27.4318 13.7009 27.4318 16.6426C27.4318 19.5842 26.1392 22.2183 24.1006 23.9888Z" clip-rule="evenodd" fill="" fill-opacity="1.000000" fill-rule="evenodd"/>
	</mask>
	<path id="Right" d="M24.1006 23.9888C25.7562 25.4265 27.9039 26.2944 30.2507 26.2944C35.487 26.2944 39.7319 21.9731 39.7319 16.6426C39.7319 11.312 35.487 6.99072 30.2507 6.99072C27.9039 6.99072 25.7562 7.85864 24.1006 9.29639C26.1392 11.0667 27.4318 13.7009 27.4318 16.6426C27.4318 19.5842 26.1392 22.2183 24.1006 23.9888Z" clip-rule="evenodd" fill="#F9A000" fill-opacity="1.000000" fill-rule="evenodd" mask="url(#mask_783_3541)"/>
	<path id="Right" d="" fill="#979797" fill-opacity="0.000000" fill-rule="nonzero"/>
	<path id="Middle" d="M24.1005 9.29688C26.1391 11.0671 27.4318 13.7014 27.4318 16.6431C27.4318 19.5845 26.1391 22.2188 24.1005 23.989C22.062 22.2188 20.7693 19.5845 20.7693 16.6431C20.7693 13.7014 22.062 11.0671 24.1005 9.29688Z" clip-rule="evenodd" fill="#FF5E00" fill-opacity="1.000000" fill-rule="evenodd"/>
</svg>
