<svg width="48.000000" height="34.000000" viewBox="0 0 48 34" fill="none" xmlns="http://www.w3.org/2000/svg" xmlns:xlink="http://www.w3.org/1999/xlink">
	<desc>
			Created with Pixso.
	</desc>
	<defs/>
	<rect id="BASE" x="-0.686401" rx="15.875000" width="48.686337" height="33.521740" fill="#FFFFFF" fill-opacity="1.000000"/>
	<rect id="BASE" x="0.636536" y="1.322998" rx="15.437953" width="46.040504" height="30.875906" stroke="#D9D9D9" stroke-opacity="1.000000" stroke-width="2.645833"/>
	<path id="Vector" d="M13.08 21.28L10.92 21.28C10.77 21.28 10.64 21.39 10.62 21.54L9.74 27.11C9.73 27.22 9.81 27.32 9.92 27.32L10.96 27.32C11.1 27.32 11.23 27.21 11.25 27.06L11.49 25.56C11.51 25.41 11.64 25.31 11.79 25.31L12.47 25.31C13.9 25.31 14.72 24.61 14.93 23.24C15.03 22.64 14.94 22.17 14.66 21.84C14.35 21.47 13.8 21.28 13.08 21.28ZM13.33 23.32C13.21 24.1 12.62 24.1 12.04 24.1L11.72 24.1L11.95 22.64C11.96 22.55 12.04 22.49 12.12 22.49L12.27 22.49C12.67 22.49 13.03 22.49 13.22 22.71C13.34 22.85 13.37 23.04 13.33 23.32ZM19.55 23.29L18.51 23.29C18.42 23.29 18.35 23.36 18.33 23.45L18.29 23.74L18.22 23.63C17.99 23.3 17.49 23.19 16.99 23.19C15.85 23.19 14.87 24.07 14.68 25.29C14.58 25.9 14.72 26.48 15.06 26.89C15.38 27.26 15.83 27.41 16.37 27.41C17.29 27.41 17.8 26.82 17.8 26.82L17.76 27.11C17.74 27.22 17.82 27.32 17.94 27.32L18.87 27.32C19.02 27.32 19.14 27.21 19.17 27.06L19.73 23.5C19.74 23.39 19.66 23.29 19.55 23.29ZM18.1 25.32C18 25.91 17.53 26.31 16.93 26.31C16.63 26.31 16.39 26.21 16.24 26.03C16.09 25.85 16.03 25.59 16.08 25.3C16.17 24.71 16.65 24.3 17.24 24.3C17.53 24.3 17.77 24.4 17.93 24.58C18.09 24.77 18.15 25.03 18.1 25.32ZM24.03 23.29L25.07 23.29C25.21 23.29 25.3 23.46 25.22 23.58L21.75 28.6C21.7 28.68 21.6 28.73 21.5 28.73L20.46 28.73C20.32 28.73 20.23 28.56 20.32 28.44L21.4 26.91L20.25 23.53C20.21 23.41 20.3 23.29 20.42 23.29L21.44 23.29C21.58 23.29 21.69 23.38 21.73 23.51L22.34 25.55L23.78 23.42C23.83 23.34 23.93 23.29 24.03 23.29Z" fill="#253B80" fill-opacity="1.000000" fill-rule="evenodd"/>
	<path id="Vector" d="M35.32 27.11L36.2 21.44C36.22 21.35 36.29 21.28 36.38 21.28L37.38 21.28C37.49 21.28 37.58 21.38 37.56 21.49L36.68 27.06C36.66 27.21 36.54 27.32 36.39 27.32L35.49 27.32C35.38 27.32 35.3 27.22 35.32 27.11ZM28.51 21.28L26.35 21.28C26.2 21.28 26.08 21.39 26.05 21.54L25.18 27.11C25.16 27.22 25.25 27.32 25.36 27.32L26.47 27.32C26.57 27.32 26.66 27.24 26.67 27.14L26.92 25.56C26.95 25.41 27.07 25.31 27.22 25.31L27.9 25.31C29.33 25.31 30.15 24.61 30.37 23.24C30.46 22.64 30.37 22.17 30.09 21.84C29.78 21.47 29.24 21.28 28.51 21.28ZM28.76 23.32C28.65 24.1 28.05 24.1 27.48 24.1L27.15 24.1L27.38 22.64C27.4 22.55 27.47 22.49 27.56 22.49L27.71 22.49C28.1 22.49 28.47 22.49 28.66 22.71C28.77 22.85 28.81 23.04 28.76 23.32ZM34.98 23.29L33.95 23.29C33.86 23.29 33.78 23.36 33.77 23.45L33.72 23.74L33.65 23.63C33.43 23.3 32.93 23.19 32.43 23.19C31.28 23.19 30.3 24.07 30.11 25.29C30.02 25.9 30.16 26.48 30.5 26.89C30.82 27.26 31.27 27.41 31.8 27.41C32.73 27.41 33.24 26.82 33.24 26.82L33.19 27.11C33.18 27.22 33.26 27.32 33.37 27.32L34.3 27.32C34.45 27.32 34.58 27.21 34.6 27.06L35.16 23.5C35.18 23.39 35.09 23.29 34.98 23.29ZM33.54 25.32C33.44 25.91 32.97 26.31 32.37 26.31C32.07 26.31 31.83 26.21 31.67 26.03C31.52 25.85 31.46 25.59 31.51 25.3C31.6 24.71 32.08 24.3 32.67 24.3C32.97 24.3 33.21 24.4 33.36 24.58C33.52 24.77 33.58 25.03 33.54 25.32Z" fill="#179BD7" fill-opacity="1.000000" fill-rule="evenodd"/>
	<path id="Vector" d="M21.09 19.29L21.35 17.59L20.76 17.58L17.93 17.58L19.9 5.06C19.9 5.02 19.92 4.99 19.95 4.96C19.98 4.94 20.02 4.92 20.06 4.92L24.83 4.92C26.41 4.92 27.51 5.25 28.08 5.91C28.34 6.21 28.52 6.53 28.6 6.89C28.68 7.26 28.69 7.7 28.6 8.24L28.6 8.28L28.6 8.62L28.86 8.77C29.09 8.89 29.27 9.03 29.4 9.19C29.63 9.45 29.78 9.78 29.84 10.18C29.91 10.58 29.89 11.07 29.78 11.61C29.66 12.24 29.46 12.79 29.2 13.24C28.95 13.65 28.64 14 28.27 14.26C27.91 14.51 27.49 14.7 27.02 14.83C26.56 14.95 26.03 15.01 25.45 15.01L25.08 15.01C24.82 15.01 24.56 15.1 24.36 15.28C24.15 15.45 24.02 15.69 23.98 15.95L23.95 16.11L23.48 19.1L23.46 19.21C23.45 19.24 23.44 19.26 23.43 19.27C23.42 19.28 23.4 19.29 23.38 19.29L21.09 19.29Z" fill="#253B80" fill-opacity="1.000000" fill-rule="nonzero"/>
	<path id="Vector" d="M29.12 8.31C29.1 8.41 29.09 8.5 29.07 8.6C28.44 11.84 26.29 12.96 23.54 12.96L22.14 12.96C21.8 12.96 21.52 13.21 21.46 13.54L20.75 18.1L20.54 19.4C20.51 19.61 20.68 19.81 20.9 19.81L23.38 19.81C23.67 19.81 23.92 19.6 23.97 19.31L24 19.18L24.46 16.2L24.49 16.04C24.54 15.75 24.79 15.53 25.08 15.53L25.45 15.53C27.86 15.53 29.74 14.55 30.29 11.71C30.52 10.53 30.4 9.54 29.8 8.84C29.61 8.63 29.38 8.46 29.12 8.31Z" fill="#179BD7" fill-opacity="1.000000" fill-rule="nonzero"/>
	<path id="Vector" d="M28.46 8.05C28.36 8.02 28.26 8 28.16 7.97C28.06 7.95 27.95 7.93 27.85 7.91C27.47 7.85 27.05 7.82 26.61 7.82L22.87 7.82C22.78 7.82 22.69 7.85 22.61 7.88C22.44 7.97 22.31 8.13 22.28 8.33L21.49 13.39L21.46 13.54C21.52 13.21 21.8 12.96 22.14 12.96L23.54 12.96C26.29 12.96 28.44 11.84 29.07 8.6C29.09 8.5 29.1 8.41 29.12 8.31C28.96 8.23 28.78 8.16 28.6 8.1C28.55 8.08 28.51 8.07 28.46 8.05Z" fill="#222D65" fill-opacity="1.000000" fill-rule="nonzero"/>
	<path id="Vector" d="M22.28 8.33C22.31 8.13 22.44 7.97 22.61 7.88C22.69 7.85 22.78 7.83 22.87 7.83L26.61 7.83C27.05 7.83 27.47 7.85 27.85 7.92C27.95 7.93 28.06 7.95 28.16 7.98C28.26 8 28.36 8.02 28.46 8.05C28.51 8.07 28.55 8.08 28.6 8.1C28.78 8.16 28.96 8.23 29.12 8.32C29.3 7.12 29.11 6.3 28.47 5.56C27.76 4.75 26.47 4.4 24.83 4.4L20.06 4.4C19.72 4.4 19.44 4.64 19.38 4.98L17.4 17.63C17.36 17.88 17.55 18.1 17.8 18.1L20.75 18.1L21.49 13.39L22.28 8.33Z" fill="#253B80" fill-opacity="1.000000" fill-rule="nonzero"/>
</svg>
