<svg width="14.000000" height="13.000000" viewBox="0 0 14 13" fill="none" xmlns="http://www.w3.org/2000/svg" xmlns:xlink="http://www.w3.org/1999/xlink">
	<desc>
			Created with Pixso.
	</desc>
	<defs/>
	<path id="Star 1" d="M5.92 -0.25L4.72 3.45C4.64 3.7 4.41 3.87 4.15 3.87L0.26 3.87C-0.32 3.87 -0.57 4.61 -0.1 4.95L3.05 7.24C3.26 7.39 3.35 7.67 3.27 7.91L2.07 11.62C1.89 12.17 2.52 12.63 2.99 12.29L6.14 10C6.35 9.85 6.64 9.85 6.85 10L10 12.29C10.47 12.63 11.1 12.17 10.92 11.62L9.72 7.91C9.64 7.67 9.73 7.39 9.94 7.24L13.09 4.95C13.56 4.61 13.31 3.87 12.73 3.87L8.84 3.87C8.58 3.87 8.35 3.7 8.27 3.45L7.07 -0.25C6.89 -0.8 6.1 -0.8 5.92 -0.25Z" fill="#FFFFFF" fill-opacity="1.000000" fill-rule="evenodd"/>
</svg>
