<svg width="21.000000" height="21.000000" viewBox="0 0 21 21" fill="none" xmlns="http://www.w3.org/2000/svg" xmlns:xlink="http://www.w3.org/1999/xlink">
	<desc>
			Created with Pixso.
	</desc>
	<defs/>
	<path id="Vector" d="M1.9 5.25C1.9 4.59 2.1 3.94 2.47 3.39C2.83 2.84 3.35 2.41 3.96 2.16C4.57 1.91 5.24 1.84 5.89 1.97C6.53 2.09 7.13 2.41 7.6 2.87L7.99 3.26L8.52 3.12C9.81 2.77 11.18 2.77 12.47 3.12C13.77 3.46 14.95 4.14 15.9 5.09C16.85 6.04 17.53 7.22 17.88 8.52C18.22 9.81 18.22 11.18 17.87 12.47L17.73 13L18.12 13.39C18.74 14.02 19.1 14.87 19.1 15.76C19.1 16.64 18.74 17.49 18.12 18.12C17.49 18.74 16.64 19.1 15.76 19.1C14.87 19.1 14.02 18.74 13.39 18.12L13 17.73L12.47 17.87C11.18 18.22 9.81 18.22 8.52 17.88C7.22 17.53 6.04 16.85 5.09 15.9C4.14 14.95 3.46 13.77 3.11 12.47C2.77 11.18 2.77 9.81 3.12 8.52L3.26 7.99L2.87 7.6C2.25 6.97 1.9 6.13 1.9 5.25ZM5.25 0C4.26 0 3.29 0.27 2.45 0.8C1.61 1.33 0.94 2.08 0.51 2.98C0.08 3.87 -0.08 4.86 0.03 5.85C0.14 6.83 0.53 7.76 1.15 8.53C1.02 9.18 0.95 9.84 0.95 10.5C0.95 15.77 5.22 20.04 10.5 20.04C11.17 20.04 11.82 19.97 12.46 19.84C13.47 20.65 14.74 21.06 16.03 20.99C17.32 20.92 18.54 20.37 19.46 19.46C20.37 18.54 20.92 17.32 20.99 16.03C21.06 14.74 20.65 13.47 19.84 12.46C19.97 11.82 20.04 11.17 20.04 10.5C20.04 5.22 15.77 0.95 10.5 0.95C9.82 0.95 9.17 1.02 8.53 1.15C7.6 0.4 6.44 -0.01 5.25 0ZM9.2 7.95C9.33 7.71 9.76 7.39 10.43 7.39C11.58 7.39 12.22 7.84 12.51 8.07C12.71 8.22 12.97 8.29 13.22 8.25C13.47 8.22 13.69 8.09 13.85 7.89C14 7.69 14.07 7.43 14.04 7.18C14 6.93 13.87 6.7 13.67 6.55C13.2 6.19 12.16 5.48 10.43 5.48C9.22 5.48 8.04 6.05 7.46 7.14C7.27 7.51 7.17 7.92 7.19 8.33C7.2 8.74 7.32 9.15 7.54 9.5C7.95 10.18 8.66 10.67 9.49 10.89L10.98 11.29C11.55 11.44 12.41 11.97 12.1 12.69C11.91 13.12 11.25 13.6 10.26 13.6C9.41 13.6 8.66 13.45 7.97 12.92C7.77 12.77 7.52 12.71 7.27 12.74C7.02 12.78 6.79 12.91 6.64 13.11C6.49 13.31 6.42 13.56 6.45 13.81C6.49 14.06 6.62 14.29 6.81 14.44C7.74 15.15 8.7 15.51 10.05 15.51C11.56 15.51 13.2 14.94 13.85 13.45C14.23 12.58 14.11 11.67 13.63 10.93C12.9 9.8 11.64 9.47 10.41 9.16C10.27 9.12 10.13 9.08 9.99 9.05C9.49 8.91 8.9 8.52 9.2 7.95Z" fill="#FFFFFF" fill-opacity="1.000000" fill-rule="evenodd"/>
</svg>
