<svg width="22.000000" height="21.000000" viewBox="0 0 22 21" fill="none" xmlns="http://www.w3.org/2000/svg" xmlns:xlink="http://www.w3.org/1999/xlink">
	<desc>
			Created with Pixso.
	</desc>
	<defs/>
	<path id="Vector" d="M2.55 10.5C2.55 8.81 3.06 7.17 4.02 5.77C4.97 4.37 6.33 3.29 7.92 2.64C9.51 2 11.26 1.83 12.95 2.16C14.64 2.49 16.18 3.3 17.4 4.48C18.62 5.67 19.45 7.19 19.78 8.84C20.12 10.49 19.94 12.19 19.29 13.75C18.63 15.3 17.51 16.63 16.08 17.56C14.65 18.5 12.97 19 11.25 19C9.61 19 7.99 18.54 6.6 17.68C6.48 17.6 6.34 17.55 6.2 17.54C6.05 17.52 5.9 17.53 5.76 17.57L2.82 18.43L3.93 15.89C3.99 15.74 4.02 15.58 4.01 15.42C3.99 15.26 3.94 15.11 3.86 14.97C3 13.63 2.55 12.08 2.55 10.5ZM11.25 0C5.32 0 0.51 4.7 0.51 10.5C0.51 12.33 0.99 14.06 1.84 15.57L0.08 19.6C0 19.78 -0.02 19.97 0.01 20.16C0.04 20.34 0.13 20.52 0.25 20.66C0.38 20.8 0.55 20.91 0.74 20.96C0.93 21.01 1.13 21.01 1.31 20.95L5.92 19.61C7.54 20.52 9.38 21 11.25 21C17.18 21 22 16.29 22 10.5C22 4.7 17.18 0 11.25 0ZM13.6 12.68L12.25 13.6C11.51 13.19 10.83 12.67 10.23 12.08C9.58 11.45 9.02 10.74 8.57 9.97L9.42 9.26C9.6 9.11 9.72 8.91 9.76 8.68C9.81 8.46 9.77 8.23 9.66 8.03L8.57 6.03C8.5 5.89 8.4 5.78 8.27 5.69C8.15 5.6 8.01 5.54 7.86 5.51C7.7 5.48 7.55 5.49 7.4 5.53C7.25 5.57 7.11 5.64 7 5.74L6.67 6.02C5.9 6.68 5.44 7.77 5.82 8.87C6.43 10.61 7.44 12.19 8.78 13.5C10.64 15.31 12.52 16.02 13.62 16.3C14.51 16.52 15.35 16.22 15.94 15.75L16.55 15.27C16.68 15.17 16.78 15.04 16.84 14.89C16.91 14.74 16.94 14.58 16.92 14.42C16.91 14.26 16.86 14.11 16.77 13.97C16.69 13.83 16.57 13.72 16.43 13.64L14.71 12.64C14.54 12.54 14.34 12.49 14.15 12.5C13.95 12.5 13.76 12.57 13.6 12.68L13.6 12.68Z" fill="#FFFFFF" fill-opacity="1.000000" fill-rule="evenodd"/>
</svg>
