<svg width="14.000000" height="10.000000" viewBox="0 0 14 10" fill="none" xmlns="http://www.w3.org/2000/svg" xmlns:xlink="http://www.w3.org/1999/xlink">
	<desc>
			Created with Pixso.
	</desc>
	<defs/>
	<path id="Vector" d="M6.7 10C5.35 10 4 10 2.66 10C1.99 10 1.74 9.81 1.56 9.16C1.06 7.41 0.56 5.66 0.07 3.9C0.01 3.68 -0.03 3.44 0.01 3.22C0.1 2.73 0.6 2.49 1.13 2.63C1.91 2.84 2.68 3.03 3.46 3.27C3.67 3.32 3.77 3.28 3.89 3.12C4.57 2.21 5.27 1.33 5.97 0.44C6.44 -0.15 7.04 -0.15 7.5 0.43C8.2 1.32 8.89 2.21 9.58 3.1C9.72 3.3 9.85 3.31 10.07 3.25C10.82 3.03 11.56 2.84 12.31 2.64C13.1 2.43 13.67 2.99 13.45 3.78C12.93 5.59 12.4 7.4 11.87 9.22C11.71 9.77 11.44 9.98 10.86 9.98C9.49 9.98 8.1 9.98 6.7 10ZM2.15 4.71C2.15 4.79 2.14 4.82 2.15 4.85C2.45 5.92 2.77 6.98 3.06 8.05C3.12 8.25 3.22 8.26 3.37 8.26C5.61 8.26 7.86 8.26 10.09 8.26C10.28 8.26 10.36 8.21 10.42 8.03C10.7 7.02 10.99 6.01 11.28 5C11.3 4.92 11.32 4.84 11.34 4.72C10.79 4.88 10.29 5 9.79 5.15C9.31 5.29 8.94 5.17 8.65 4.77C8.09 4.04 7.52 3.32 6.96 2.59C6.89 2.5 6.82 2.42 6.74 2.32C6.1 3.15 5.47 3.95 4.85 4.75C4.49 5.21 4.22 5.3 3.67 5.14C3.16 4.99 2.68 4.85 2.15 4.71Z" fill="#FFFFFF" fill-opacity="1.000000" fill-rule="nonzero"/>
</svg>
