<svg width="23.000000" height="21.000000" viewBox="0 0 23 21" fill="none" xmlns="http://www.w3.org/2000/svg" xmlns:xlink="http://www.w3.org/1999/xlink">
	<desc>
			Created with Pixso.
	</desc>
	<defs/>
	<path id="Vector" d="M0 4.19C0 3.08 0.48 2.01 1.34 1.23C2.2 0.44 3.38 0 4.59 0L18.4 0C19.62 0 20.79 0.44 21.65 1.23C22.51 2.01 23 3.08 23 4.19L23 16.79C23 17.91 22.51 18.98 21.65 19.76C20.79 20.55 19.62 21 18.4 21L4.59 21C3.38 21 2.2 20.55 1.34 19.76C0.48 18.98 0 17.91 0 16.79L0 4.19ZM4.59 2.1C3.98 2.1 3.4 2.32 2.97 2.71C2.54 3.1 2.29 3.64 2.29 4.19L2.29 16.79C2.29 17.35 2.54 17.89 2.97 18.28C3.4 18.67 3.98 18.89 4.59 18.89L18.4 18.89C19.01 18.89 19.59 18.67 20.02 18.28C20.45 17.89 20.7 17.35 20.7 16.79L20.7 4.19C20.7 3.64 20.45 3.1 20.02 2.71C19.59 2.32 19.01 2.1 18.4 2.1L4.59 2.1ZM11.5 7.35C10.58 7.35 9.7 7.68 9.06 8.27C8.41 8.86 8.04 9.66 8.04 10.5C8.04 11.33 8.41 12.13 9.06 12.72C9.7 13.31 10.58 13.64 11.5 13.64C12.41 13.64 13.29 13.31 13.93 12.72C14.58 12.13 14.95 11.33 14.95 10.5C14.95 9.66 14.58 8.86 13.93 8.27C13.29 7.68 12.41 7.35 11.5 7.35ZM5.75 10.5C5.75 9.1 6.35 7.77 7.43 6.78C8.51 5.8 9.97 5.25 11.5 5.25C13.02 5.25 14.48 5.8 15.56 6.78C16.64 7.77 17.25 9.1 17.25 10.5C17.25 11.89 16.64 13.22 15.56 14.21C14.48 15.19 13.02 15.75 11.5 15.75C9.97 15.75 8.51 15.19 7.43 14.21C6.35 13.22 5.75 11.89 5.75 10.5ZM17.82 6.3C18.28 6.3 18.72 6.13 19.04 5.83C19.36 5.54 19.54 5.14 19.54 4.72C19.54 4.3 19.36 3.9 19.04 3.61C18.72 3.31 18.28 3.14 17.82 3.14C17.36 3.14 16.92 3.31 16.6 3.61C16.28 3.9 16.1 4.3 16.1 4.72C16.1 5.14 16.28 5.54 16.6 5.83C16.92 6.13 17.36 6.3 17.82 6.3Z" fill="#FFFFFF" fill-opacity="1.000000" fill-rule="evenodd"/>
</svg>
