<svg width="26.000000" height="20.000000" viewBox="0 0 26 20" fill="none" xmlns="http://www.w3.org/2000/svg" xmlns:xlink="http://www.w3.org/1999/xlink">
	<desc>
			Created with Pixso.
	</desc>
	<defs/>
	<path id="Vector" d="M6.89 18.71Q8.08 17.73 8.52 17.24C8.59 17.16 8.64 17.07 8.67 16.97Q9.17 17.09 9.68 17.17Q12.44 17.63 15.08 17.25Q15.27 17.23 15.45 17.19Q15.89 17.13 16.33 17.04C16.36 17.12 16.41 17.2 16.47 17.27Q16.91 17.77 18.1 18.74Q18.68 19.21 19.18 19.59Q19.29 19.67 19.41 19.71Q19.53 19.75 19.66 19.74Q21.44 19.69 22.79 19.06Q23.65 18.65 24.3 18.03Q24.49 17.85 24.66 17.65Q25.06 17.18 25.33 16.65Q25.43 16.46 25.52 16.25Q25.68 15.85 25.73 15.56Q25.74 15.53 25.74 15.49Q25.75 15.46 25.75 15.43Q25.75 13.26 25.25 10.61Q24.86 8.51 24.17 6.2Q23.68 4.56 23.1 2.97Q22.8 2.17 22.6 1.7Q22.56 1.6 22.49 1.51Q22.42 1.42 22.33 1.36Q21.74 0.97 21.12 0.65Q20.55 0.36 19.95 0.12Q18.95 -0.29 17.91 -0.51Q17.16 -0.67 16.47 -0.73Q16.11 -0.76 15.88 -0.75Q15.61 -0.75 15.4 -0.57Q15.2 -0.38 15.16 -0.11L14.92 1.51Q13.69 1.28 12.5 1.28Q11.28 1.28 10.01 1.52L9.84 -0.08Q9.81 -0.37 9.6 -0.56Q9.39 -0.75 9.11 -0.75Q8.88 -0.76 8.52 -0.73Q7.83 -0.67 7.08 -0.51Q6.04 -0.29 5.04 0.12Q4.44 0.36 3.87 0.65Q3.25 0.97 2.66 1.36Q2.57 1.42 2.5 1.51Q2.43 1.6 2.39 1.7Q2.19 2.17 1.89 2.97Q1.31 4.56 0.82 6.2Q0.13 8.51 -0.26 10.61Q-0.75 13.26 -0.75 15.43Q-0.75 15.46 -0.75 15.5Q-0.75 15.53 -0.74 15.56Q-0.69 15.85 -0.53 16.25Q-0.44 16.46 -0.34 16.65Q-0.07 17.18 0.33 17.65Q0.5 17.85 0.69 18.03Q1.34 18.65 2.2 19.06Q3.55 19.69 5.33 19.74Q5.46 19.75 5.59 19.71Q5.71 19.67 5.81 19.59Q6.31 19.19 6.89 18.71ZM8.54 1.88Q6.91 2.37 5.03 3.28L5.68 4.63Q7.64 3.68 9.27 3.23Q10.94 2.78 12.5 2.78Q14.06 2.78 15.72 3.23Q17.36 3.68 19.31 4.63L19.97 3.28Q18.04 2.35 16.39 1.86L16.54 0.78Q17.05 0.84 17.59 0.96Q18.51 1.15 19.39 1.51Q19.92 1.72 20.43 1.98Q20.88 2.21 21.31 2.49Q21.47 2.89 21.69 3.49Q22.26 5.03 22.73 6.63Q23.4 8.86 23.78 10.89Q24.24 13.34 24.24 15.34Q24.24 15.36 24.24 15.37Q24.2 15.52 24.13 15.68Q24.09 15.78 24.04 15.87Q23.84 16.3 23.52 16.67Q23.45 16.76 23.38 16.83Q22.87 17.37 22.15 17.7Q21.18 18.16 19.88 18.23Q19.49 17.93 19.05 17.57Q18.33 16.99 17.93 16.61Q18.31 16.49 18.69 16.34Q20.01 15.91 21.28 15.16L20.53 13.87Q19.38 14.54 18.21 14.92Q18.2 14.93 18.19 14.93Q18.19 14.93 18.18 14.93Q16.69 15.49 15.23 15.71Q14.96 15.75 14.7 15.79Q12.35 16.1 9.92 15.69Q8.43 15.44 6.9 14.91Q6.08 14.62 5.44 14.31Q5.38 14.28 5.3 14.24Q5.28 14.23 5.27 14.23Q5.27 14.23 5.27 14.23Q5.25 14.21 5.23 14.2Q5.19 14.17 5.14 14.15Q4.79 13.97 4.61 13.86L3.82 15.13L3.82 15.13Q4.04 15.27 4.41 15.46Q4.48 15.51 4.55 15.54Q4.61 15.57 4.69 15.61Q4.71 15.62 4.71 15.62Q4.72 15.63 4.73 15.63Q4.74 15.64 4.76 15.64Q5.49 16.01 6.41 16.33Q6.75 16.44 7.09 16.55Q6.68 16.94 5.93 17.56Q5.5 17.92 5.11 18.23Q3.81 18.16 2.84 17.7Q2.12 17.37 1.61 16.83Q1.54 16.76 1.47 16.67Q1.15 16.3 0.95 15.87Q0.9 15.78 0.86 15.68Q0.79 15.52 0.75 15.37Q0.75 15.36 0.75 15.34Q0.75 13.34 1.21 10.89Q1.59 8.86 2.26 6.63Q2.73 5.03 3.3 3.49Q3.52 2.89 3.68 2.49Q4.11 2.21 4.56 1.98Q5.07 1.72 5.6 1.51Q6.48 1.15 7.4 0.96Q7.93 0.84 8.42 0.79L8.54 1.88ZM5.62 10.97Q5.56 11.25 5.56 11.56Q5.56 11.84 5.62 12.11Q5.67 12.4 5.8 12.68Q5.89 12.88 6.01 13.07Q6.19 13.35 6.43 13.58Q6.62 13.77 6.84 13.91Q7.09 14.08 7.36 14.19Q7.61 14.29 7.87 14.35Q8.18 14.41 8.49 14.41Q8.85 14.41 9.19 14.33Q9.42 14.28 9.63 14.19Q9.92 14.07 10.17 13.9Q10.38 13.76 10.56 13.58Q10.8 13.36 10.97 13.09Q11.1 12.89 11.19 12.67Q11.31 12.41 11.36 12.15Q11.43 11.86 11.43 11.56Q11.43 11.34 11.4 11.14Q11.35 10.78 11.2 10.44Q11.12 10.24 11 10.06Q10.82 9.77 10.57 9.53Q10.4 9.36 10.2 9.22Q9.94 9.04 9.63 8.92Q9.41 8.83 9.17 8.77Q8.84 8.7 8.49 8.7Q8.13 8.7 7.79 8.78Q7.57 8.83 7.35 8.92Q7.07 9.04 6.82 9.21Q6.61 9.35 6.42 9.53Q6.19 9.76 6.02 10.02Q5.89 10.22 5.79 10.44Q5.68 10.7 5.62 10.97ZM13.43 10.97Q13.37 11.25 13.37 11.56Q13.37 11.84 13.43 12.11Q13.49 12.4 13.61 12.68Q13.7 12.88 13.82 13.07Q14 13.35 14.24 13.58Q14.44 13.77 14.65 13.91Q14.9 14.08 15.17 14.19Q15.42 14.29 15.69 14.35Q15.99 14.41 16.3 14.41Q16.67 14.41 17.01 14.33Q17.23 14.28 17.44 14.19Q17.73 14.07 17.98 13.9Q18.19 13.76 18.38 13.58Q18.61 13.36 18.78 13.09Q18.91 12.89 19.01 12.67Q19.12 12.41 19.18 12.15Q19.24 11.86 19.24 11.56Q19.24 11.25 19.18 10.97Q19.12 10.7 19.01 10.44Q18.91 10.22 18.78 10.02Q18.61 9.76 18.38 9.53Q18.19 9.35 17.98 9.21Q17.73 9.04 17.44 8.92Q17.23 8.83 17.01 8.78Q16.67 8.7 16.3 8.7Q15.94 8.7 15.6 8.78Q15.38 8.83 15.17 8.92Q14.88 9.04 14.63 9.21Q14.42 9.35 14.23 9.53Q14 9.76 13.83 10.02Q13.7 10.22 13.6 10.44Q13.49 10.7 13.43 10.97ZM7.08 11.8Q7.06 11.68 7.06 11.56Q7.06 11.41 7.09 11.27Q7.12 11.15 7.17 11.04Q7.2 10.95 7.25 10.87Q7.34 10.73 7.47 10.61Q7.55 10.53 7.64 10.46Q7.77 10.37 7.92 10.31Q8 10.28 8.08 10.25Q8.28 10.2 8.49 10.2Q8.69 10.2 8.88 10.25Q8.98 10.27 9.07 10.31Q9.24 10.38 9.38 10.48Q9.46 10.54 9.53 10.61Q9.67 10.75 9.77 10.91Q9.8 10.97 9.83 11.03Q9.85 11.09 9.86 11.14Q9.93 11.34 9.93 11.56Q9.93 11.7 9.89 11.84Q9.87 11.96 9.82 12.07Q9.78 12.16 9.73 12.24Q9.64 12.38 9.52 12.51Q9.44 12.58 9.35 12.65Q9.22 12.74 9.06 12.8Q8.99 12.83 8.9 12.86Q8.71 12.91 8.49 12.91Q8.32 12.91 8.16 12.88Q8.04 12.85 7.93 12.8Q7.79 12.74 7.66 12.66Q7.56 12.59 7.47 12.5Q7.33 12.37 7.24 12.21Q7.2 12.14 7.17 12.07Q7.11 11.94 7.08 11.8ZM14.9 11.8Q14.87 11.68 14.87 11.56Q14.87 11.41 14.9 11.27Q14.93 11.15 14.98 11.04Q15.02 10.95 15.06 10.87Q15.15 10.73 15.28 10.61Q15.36 10.53 15.45 10.46Q15.58 10.37 15.73 10.31Q15.81 10.28 15.89 10.25Q16.09 10.2 16.3 10.2Q16.52 10.2 16.72 10.25Q16.8 10.28 16.88 10.31Q17.03 10.37 17.16 10.46Q17.25 10.53 17.33 10.61Q17.46 10.73 17.54 10.87Q17.59 10.95 17.63 11.04Q17.68 11.15 17.71 11.27Q17.74 11.41 17.74 11.56Q17.74 11.7 17.71 11.84Q17.68 11.96 17.63 12.07Q17.59 12.16 17.54 12.24Q17.46 12.38 17.33 12.51Q17.25 12.58 17.16 12.65Q17.03 12.74 16.88 12.8Q16.8 12.83 16.72 12.86Q16.52 12.91 16.3 12.91Q16.14 12.91 15.98 12.88Q15.86 12.85 15.74 12.8Q15.6 12.74 15.47 12.66Q15.37 12.59 15.28 12.5Q15.15 12.37 15.05 12.21Q15.01 12.14 14.98 12.07Q14.92 11.94 14.9 11.8Z" fill="#FFFFFF" fill-opacity="1.000000" fill-rule="evenodd"/>
</svg>
