<svg width="49.000000" height="34.000000" viewBox="0 0 49 34" fill="none" xmlns="http://www.w3.org/2000/svg" xmlns:xlink="http://www.w3.org/1999/xlink">
	<desc>
			Created with Pixso.
	</desc>
	<defs/>
	<rect id="BASE" rx="15.875000" width="48.686337" height="33.521740" fill="#FFFFFF" fill-opacity="1.000000"/>
	<rect id="BASE" x="1.322937" y="1.322998" rx="15.437953" width="46.040504" height="30.875906" stroke="#D9D9D9" stroke-opacity="1.000000" stroke-width="2.645833"/>
	<path id="visa-logo" d="M27.8879 14.0964C27.3141 14.0964 26.8224 14.4211 26.7404 14.9893C26.7404 16.2058 30.5915 16.3674 30.5915 19.1267C30.5915 21.3176 28.7076 22.7776 25.6762 22.6973C24.6926 22.6973 23.6284 22.5342 22.6448 22.1292L23.1366 19.8567C24.0369 20.2629 25.0204 20.5063 26.0041 20.5063C26.8224 20.5063 27.642 20.1814 27.642 19.4517C27.724 18.9651 27.3141 18.6401 26.25 18.1536C25.2664 17.6655 23.8729 16.8555 23.8729 15.3127C23.8729 13.2849 25.8401 11.8237 28.5437 11.8237C29.3619 11.8237 30.2636 11.9868 31.0833 12.3118L30.5915 14.583C29.7718 14.178 28.7896 14.0146 27.8879 14.0964ZM11.8307 22.616L14.7801 22.616L19.2036 12.0671L16.3361 12.0671L13.3881 19.2085L12.2405 13.1218C12.1585 12.5552 11.6667 12.0671 11.011 12.0671L6.25964 12.0671L6.25964 12.3921C7.24329 12.5552 8.14496 12.8787 8.9632 13.2852C9.29108 13.4468 9.51398 13.79 9.61896 14.178L11.8307 22.616ZM20.843 22.616L18.0574 22.616L20.3511 12.0671L23.1366 12.0671L20.843 22.616ZM40.3401 22.616L38.1284 12.0671L35.7527 12.0671C35.2609 12.0671 34.7691 12.3921 34.6052 12.8787L30.5096 22.616L33.3771 22.616L33.9494 21.0747L37.4727 21.0747L37.8005 22.616L40.3401 22.616ZM36.9807 18.8833L36.1625 14.9077L34.6871 18.8833L36.9807 18.8833Z" clip-rule="evenodd" fill="#172B85" fill-opacity="1.000000" fill-rule="evenodd"/>
</svg>
