<svg width="42.000000" height="43.000000" viewBox="0 0 42 43" fill="none" xmlns="http://www.w3.org/2000/svg" xmlns:xlink="http://www.w3.org/1999/xlink">
	<desc>
			Created with Pixso.
	</desc>
	<defs>
		<filter id="filter_860_1596_dd" x="-0.517822" y="0.000000" width="42.035583" height="42.777771" filterUnits="userSpaceOnUse" color-interpolation-filters="sRGB">
			<feFlood flood-opacity="0" result="BackgroundImageFix"/>
			<feColorMatrix in="SourceAlpha" type="matrix" values="0 0 0 0 0 0 0 0 0 0 0 0 0 0 0 0 0 0 127 0" result="hardAlpha"/>
			<feOffset dx="0" dy="0"/>
			<feGaussianBlur stdDeviation="3.33333"/>
			<feComposite in2="hardAlpha" operator="out" k2="-1" k3="1"/>
			<feColorMatrix type="matrix" values="0 0 0 0 0 0 0 0 0 0 0 0 0 0 0 0 0 0 1 0"/>
			<feBlend mode="normal" in2="BackgroundImageFix" result="effect_dropShadow_1"/>
			<feBlend mode="normal" in="SourceGraphic" in2="effect_dropShadow_1" result="shape"/>
		</filter>
	</defs>
	<g filter="url(#filter_860_1596_dd)">
		<path id="Vector" d="M18.27 28.06C17.24 28.06 16.41 28.89 16.41 29.92C16.41 30.94 17.24 31.77 18.27 31.77C19.29 31.77 20.12 30.94 20.12 29.92C20.12 28.89 19.29 28.06 18.27 28.06Z" stroke="#FFFFFF" stroke-opacity="1.000000" stroke-width="2.000000"/>
		<path id="Vector" d="M26.43 28.06C25.41 28.06 24.58 28.89 24.58 29.92C24.58 30.94 25.41 31.77 26.43 31.77C27.46 31.77 28.29 30.94 28.29 29.92C28.29 28.89 27.46 28.06 26.43 28.06Z" stroke="#FFFFFF" stroke-opacity="1.000000" stroke-width="2.000000"/>
		<path id="Vector" d="M14.31 17.18C14.43 16.3 14.64 15.83 14.97 15.5C15.29 15.16 15.75 14.95 16.62 14.83C17.51 14.71 18.69 14.71 20.38 14.71L23.83 14.71C25.79 14.71 27.17 14.71 28.2 14.86C29.2 15 29.7 15.26 30.03 15.66C30.36 16.06 30.54 16.6 30.51 17.63C30.49 18.69 30.26 20.07 29.94 22.05C29.7 23.51 29.53 24.52 29.31 25.28C29.09 26.02 28.86 26.41 28.54 26.68C28.23 26.95 27.81 27.13 27.06 27.22C26.29 27.32 25.28 27.32 23.83 27.32L20.38 27.32C18.69 27.32 17.51 27.32 16.62 27.2C15.75 27.08 15.29 26.86 14.97 26.53C14.64 26.2 14.43 25.73 14.31 24.85C14.19 23.94 14.19 22.74 14.19 21.01C14.19 19.29 14.19 18.09 14.31 17.18Z" stroke="#FFFFFF" stroke-opacity="1.000000" stroke-width="2.000000"/>
		<path id="Vector" d="M14.19 20.64L14.19 13.26C14.19 12.01 13.17 11 11.9 11L10.48 11" stroke="#FFFFFF" stroke-opacity="1.000000" stroke-width="2.000000" stroke-linecap="round"/>
	</g>
</svg>
