<svg width="14.000000" height="20.000000" viewBox="0 0 14 20" fill="none" xmlns="http://www.w3.org/2000/svg" xmlns:xlink="http://www.w3.org/1999/xlink">
	<desc>
			Created with Pixso.
	</desc>
	<defs/>
	<path id="Vector" d="M6.25 6.5C4.45 6.5 3 5.04 3 3.25C3 1.45 4.45 0 6.25 0C8.04 0 9.5 1.45 9.5 3.25C9.5 5.04 8.04 6.5 6.25 6.5Z" stroke="#FFFFFF" stroke-opacity="1.000000" stroke-width="1.500000"/>
	<path id="Vector" d="M10.76 17.17C9.63 17.97 8.04 18.5 6.25 18.5C4.45 18.5 2.86 17.97 1.73 17.17C0.6 16.37 0 15.32 0 14.25C0 13.17 0.6 12.12 1.73 11.32C2.86 10.52 4.45 10 6.25 10C8.04 10 9.63 10.52 10.76 11.32C11.89 12.12 12.5 13.17 12.5 14.25C12.5 15.32 11.89 16.37 10.76 17.17Z" stroke="#FFFFFF" stroke-opacity="1.000000" stroke-width="1.500000"/>
</svg>
